<svg id="Capa_1" data-name="Capa 1" xmlns="http://www.w3.org/2000/svg" viewBox="0 0 50.47 50.47"><defs><style>.cls-1{fill:#cf6f19;}.cls-2,.cls-3{fill:none;stroke:#333430;stroke-width:0.39px;}.cls-2{stroke-linecap:round;stroke-linejoin:round;}.cls-3{stroke-miterlimit:10;stroke-dasharray:0.35 1.05 0.35 1.05;}</style></defs><title>tel</title><path class="cls-1" d="M24.18,43.77c-2.75-2.11-3.27-3.53-4.06-8.23s0-27.8,0-27.8-.6-5.9,6.18-5.21c8.59.87,7.54,12,6.37,13.1s-4.63-1.87-6.43,0-1.67,17.29-.63,19.12a4.3,4.3,0,0,0,4.47.53c2.42-1,3.07,3,3,5.61C33.1,43.26,32.3,50,24.18,43.77Z"/><path class="cls-2" d="M22.46,45.77c-2.75-2.11-3.27-3.53-4.05-8.24s0-27.79,0-27.79-.61-5.9,6.17-5.22c8.59.87,7.55,12,6.37,13.11s-4.62-1.87-6.43,0-1.67,17.29-.63,19.12a4.3,4.3,0,0,0,4.48.52c2.42-1,3.06,3,3,5.62C31.38,45.25,30.58,52,22.46,45.77Z"/><path class="cls-3" d="M26.24,19.73s-.68,10.84,0,12.93"/></svg>